<svg xmlns="http://www.w3.org/2000/svg" height="20" width="20"><path fill="none" d="M0 0h20v20H0z"/><path d="M15 10c-1.1 0-2 .9-2 2s.9 2 2 2 2-.9 2-2-.9-2-2-2zm0 3c-.55 0-1-.45-1-1s.45-1 1-1 1 .45 1 1-.45 1-1 1z"/><path d="M12 11.99C12 10.34 13.34 9 14.99 9h.24l-1.2-5.22a.997.997 0 00-.98-.78H10v1h3.05L14 8.14c-1.57.4-2.75 1.72-2.96 3.36H6.93a2.004 2.004 0 00-2.44-1.44c-.71.18-1.29.78-1.44 1.5a1.997 1.997 0 003.88.94H12v-.51zM5 13c-.55 0-1-.45-1-1s.45-1 1-1 1 .45 1 1-.45 1-1 1zm4.5 2H7l3.5 2v-1H13l-3.5-2z"/></svg>