<svg xmlns="http://www.w3.org/2000/svg" height="20" width="20"><path fill="none" d="M0 0h20v20H0z"/><path d="M9.25 14h1.5v1h-1.5v-1zM10 7a2.5 2.5 0 00-2.5 2.5C7.5 11 9.25 12 9.25 13h1.5c0-1 1.75-2 1.75-3.5A2.5 2.5 0 0010 7zm-6 3c0-1.65.67-3.15 1.76-4.24l-.71-.71A6.976 6.976 0 003 10c0 1.93.78 3.68 2.05 4.95l.71-.71A5.98 5.98 0 014 10zm13 0c0-1.93-.78-3.68-2.05-4.95l-.71.71A5.98 5.98 0 0116 10c0 1.65-.67 3.15-1.76 4.24l.71.71A6.976 6.976 0 0017 10zM6.46 13.54l.71-.71A4.025 4.025 0 016 10c0-1.1.45-2.1 1.17-2.83l-.71-.71a5.022 5.022 0 000 7.08zM14 10c0 1.1-.45 2.1-1.17 2.83l.71.71a5.022 5.022 0 000-7.08l-.71.71C13.55 7.9 14 8.9 14 10z"/></svg>