<svg xmlns="http://www.w3.org/2000/svg" height="20" width="20"><path fill="none" d="M0 0h20v20H0z"/><path d="M9.5 6c-1.44 0-2.7.68-3.52 1.73A1.498 1.498 0 004.5 6C3.67 6 3 6.67 3 7.5S3.67 9 4.5 9c.33 0 .62-.11.87-.28A4.494 4.494 0 009.5 15c2.49 0 4.5-2.01 4.5-4.5 0-.08-.02-.16-.02-.24 0-.04.01-.09.01-.12-.06-.61.38-1.14.98-1.14H18V6H9.5zm-5 2c-.28 0-.5-.22-.5-.5s.22-.5.5-.5.5.22.5.5-.22.5-.5.5zm6.97 4.02c-.45.59-1.16.98-1.97.98A2.5 2.5 0 017 10.5c0-1.27.95-2.3 2.17-2.47.11-.01.22-.03.33-.03a2.5 2.5 0 012.5 2.5c0 .57-.2 1.1-.53 1.52z"/><circle cx="9.5" cy="10.5" r="1.5"/></svg>